<?xml version="1.0" encoding="utf-8"?>
<!-- Generator: Adobe Illustrator 26.3.1, SVG Export Plug-In . SVG Version: 6.00 Build 0)  -->
<svg version="1.1" id="Layer_1" xmlns="http://www.w3.org/2000/svg" xmlns:xlink="http://www.w3.org/1999/xlink" x="0px" y="0px"
	 viewBox="0 0 512 512" style="enable-background:new 0 0 512 512;" xml:space="preserve">
<style type="text/css">
	.st0{fill:#FFFFFF;}
</style>
<g id="_01_align_center">
	<path class="st0" d="M426.7,0h-320c-35.3,0-64,28.7-64,64v384c0,35.3,28.7,64,64,64h362.7V42.7C469.3,19.1,450.2,0,426.7,0z
		 M426.7,384h-256V42.7h256V384z M106.7,42.7H128V384h-21c-7.4,0.1-14.7,1.4-21.7,4V64C85.3,52.2,94.9,42.7,106.7,42.7z
		 M106.7,469.3c-11.7,0-21.2-9.4-21.3-21.2h0.3c-0.1-11.8,9.4-21.4,21.2-21.5c0.1,0,0.1,0,0.2,0h319.7v42.7H106.7z"/>
</g>
</svg>
