<?xml version="1.0" encoding="utf-8"?>
<!-- Generator: Adobe Illustrator 26.3.1, SVG Export Plug-In . SVG Version: 6.00 Build 0)  -->
<svg version="1.1" id="Layer_1" xmlns="http://www.w3.org/2000/svg" xmlns:xlink="http://www.w3.org/1999/xlink" x="0px" y="0px"
	 viewBox="0 0 512 512" style="enable-background:new 0 0 512 512;" xml:space="preserve">
<style type="text/css">
	.st0{fill:#FFFFFF;}
</style>
<path class="st0" d="M298.7,149.3c0,23.6-19.1,42.7-42.7,42.7s-42.7-19.1-42.7-42.7s19.1-42.7,42.7-42.7S298.7,125.8,298.7,149.3z
	 M361.6,255.1L256,358.4L150.6,255.2C92.2,197,92,102.5,150.2,44S303-14.5,361.4,43.7s58.6,152.8,0.3,211.2
	C361.7,255,361.7,255,361.6,255.1L361.6,255.1z M341.3,149.3c0-47.1-38.2-85.3-85.3-85.3s-85.3,38.2-85.3,85.3s38.2,85.3,85.3,85.3
	S341.3,196.5,341.3,149.3z M466.5,226.4l-30.6-10.2c-9.5,26-24.6,49.5-44.1,69.1L256,418.1L120.7,285.9
	c-25.7-25.6-43.6-57.9-51.6-93.2C34.3,189.4,3.5,215,0.3,249.9C0.1,251.9,0,254,0,256v208l170.3,48.7L341.4,470l170.7,41.6v-224
	C512,259.4,493.5,234.5,466.5,226.4L466.5,226.4z"/>
</svg>
