<?xml version="1.0" encoding="utf-8"?>
<!-- Generator: Adobe Illustrator 26.3.1, SVG Export Plug-In . SVG Version: 6.00 Build 0)  -->
<svg version="1.1" id="Capa_1" xmlns="http://www.w3.org/2000/svg" xmlns:xlink="http://www.w3.org/1999/xlink" x="0px" y="0px"
	 viewBox="0 0 512 512" style="enable-background:new 0 0 512 512;" xml:space="preserve">
<style type="text/css">
	.st0{fill:#FFFFFF;}
</style>
<g>
	<path class="st0" d="M480,224H32c-17.7,0-32,14.3-32,32s14.3,32,32,32h448c17.7,0,32-14.3,32-32S497.7,224,480,224z"/>
	<path class="st0" d="M32,138.7h448c17.7,0,32-14.3,32-32s-14.3-32-32-32H32c-17.7,0-32,14.3-32,32S14.3,138.7,32,138.7z"/>
	<path class="st0" d="M480,373.3H32c-17.7,0-32,14.3-32,32s14.3,32,32,32h448c17.7,0,32-14.3,32-32S497.7,373.3,480,373.3z"/>
</g>
</svg>
