<?xml version="1.0" encoding="utf-8"?>
<!-- Generator: Adobe Illustrator 26.3.1, SVG Export Plug-In . SVG Version: 6.00 Build 0)  -->
<svg version="1.1" id="Outline" xmlns="http://www.w3.org/2000/svg" xmlns:xlink="http://www.w3.org/1999/xlink" x="0px" y="0px"
	 viewBox="0 0 512 512" style="enable-background:new 0 0 512 512;" xml:space="preserve">
<style type="text/css">
	.st0{fill:#FFFFFF;}
</style>
<path class="st0" d="M496.4,200.9C463.4,147.1,388.1,56.6,256,56.6S48.6,147.1,15.6,200.9c-20.9,33.7-20.9,76.4,0,110.1
	C48.6,364.9,123.9,455.4,256,455.4s207.4-90.4,240.4-144.3C517.3,277.3,517.3,234.7,496.4,200.9z M460.1,288.7
	c-28.4,46.2-92.7,124-204.1,124s-175.7-77.8-204.1-124c-12.4-20.1-12.4-45.4,0-65.5c28.4-46.2,92.7-124,204.1-124
	s175.7,77.7,204.1,124C472.5,243.3,472.5,268.7,460.1,288.7L460.1,288.7z"/>
<path class="st0" d="M256,149.3c-58.9,0-106.7,47.8-106.7,106.7S197.1,362.7,256,362.7S362.7,314.9,362.7,256
	C362.6,197.1,314.9,149.4,256,149.3z M256,320c-35.3,0-64-28.7-64-64s28.7-64,64-64s64,28.7,64,64S291.3,320,256,320z"/>
</svg>
