<?xml version="1.0" encoding="utf-8"?>
<!-- Generator: Adobe Illustrator 26.3.1, SVG Export Plug-In . SVG Version: 6.00 Build 0)  -->
<svg version="1.1" id="Outline" xmlns="http://www.w3.org/2000/svg" xmlns:xlink="http://www.w3.org/1999/xlink" x="0px" y="0px"
	 viewBox="0 0 512 512" style="enable-background:new 0 0 512 512;" xml:space="preserve">
<style type="text/css">
	.st0{fill:#FFFFFF;}
</style>
<path class="st0" d="M493.2,193.5L331.4,31.6c-41.7-41.6-109.2-41.6-150.9,0L18.8,193.5C6.7,205.4,0,221.7,0,238.7v209.4
	c0,35.3,28.7,64,64,64h384c35.3,0,64-28.7,64-64V238.7C512,221.7,505.3,205.4,493.2,193.5z M320,469.5H192v-83.9
	c0-35.3,28.7-64,64-64s64,28.7,64,64V469.5z M469.3,448.1c0,11.8-9.6,21.3-21.3,21.3h-85.3v-83.9c0-58.9-47.8-106.7-106.7-106.7
	s-106.7,47.8-106.7,106.7v83.9H64c-11.8,0-21.3-9.6-21.3-21.3V238.7c0-5.7,2.3-11.1,6.3-15.1L210.7,61.9c25-24.9,65.5-24.9,90.5,0
	l161.8,161.8c4,4,6.2,9.4,6.3,15V448.1z"/>
</svg>
