<?xml version="1.0" encoding="utf-8"?>
<!-- Generator: Adobe Illustrator 26.3.1, SVG Export Plug-In . SVG Version: 6.00 Build 0)  -->
<svg version="1.1" id="Layer_1" xmlns="http://www.w3.org/2000/svg" xmlns:xlink="http://www.w3.org/1999/xlink" x="0px" y="0px"
	 viewBox="0 0 512 512" style="enable-background:new 0 0 512 512;" xml:space="preserve">
<style type="text/css">
	.st0{fill:#FFFFFF;}
</style>
<path class="st0" d="M256,256c47.1,0,85.3-38.2,85.3-85.3S303.1,85.3,256,85.3s-85.3,38.2-85.3,85.3S208.9,256,256,256z M256,128
	c23.6,0,42.7,19.1,42.7,42.7s-19.1,42.7-42.7,42.7s-42.7-19.1-42.7-42.7S232.4,128,256,128z M341.3,470L512,511.5V287.6
	c0-28.2-18.5-53.1-45.5-61.2l-44.8-14.9c3.3-13.3,4.9-27,5-40.7C426.7,76.5,350.3,0.1,256,0.1S85.3,76.5,85.3,170.8
	c0.1,8.7,0.8,17.3,2.1,25.9c-32.7-13.1-69.9,2.9-82.9,35.7C1.5,239.8,0,247.9,0,256v208l170.3,48.7L341.3,470z M165.5,80.3
	c50.3-49.6,131.4-49,181,1.3c49.1,49.8,49.1,129.7,0.2,179.5L256,349.9l-90.5-88.6C115.5,211.3,115.5,130.3,165.5,80.3z M42.7,256
	c-0.1-7.1,3.5-13.8,9.5-17.7c6.3-4.1,14.2-4.7,21-1.5l30.6,11.1c8.2,16.2,18.9,31,31.7,43.9L256,409.6l120.7-118
	c11.9-11.8,21.9-25.4,29.9-40.1l47.3,15.8c9.2,2.6,15.5,11,15.5,20.5v169.6l-128-31.3l-170.2,42.7L42.7,431.9V256z"/>
</svg>
